<svg xmlns:dc="http://purl.org/dc/elements/1.1/" xmlns:cc="http://creativecommons.org/ns#" xmlns:rdf="http://www.w3.org/1999/02/22-rdf-syntax-ns#" xmlns:svg="http://www.w3.org/2000/svg" xmlns="http://www.w3.org/2000/svg" xmlns:xlink="http://www.w3.org/1999/xlink" id="svg5647" viewBox="0 0 1024 768" height="768px" width="1024px" version="1.1">
  <linearGradient spreadMethod="pad" y2="30%" x2="-10%" y1="120%" x1="30%" id="3d_gradient2-logo-85d0cba4-f0df-467f-9444-824dc68821b9">
    <stop id="stop5628" stop-opacity="1" stop-color="#ffffff" offset="0%"></stop>
    <stop id="stop5630" stop-opacity="1" stop-color="#000000" offset="100%"></stop>
  </linearGradient>
  <linearGradient gradientTransform="rotate(-30)" spreadMethod="pad" y2="30%" x2="-10%" y1="120%" x1="30%" id="3d_gradient3-logo-85d0cba4-f0df-467f-9444-824dc68821b9">
    <stop id="stop5633" stop-opacity="1" stop-color="#ffffff" offset="0%"></stop>
    <stop id="stop5635" stop-opacity="1" stop-color="#cccccc" offset="50%"></stop>
    <stop id="stop5637" stop-opacity="1" stop-color="#000000" offset="100%"></stop>
  </linearGradient>
  <g id="logo-group">
    <image xlink:href="" id="container" x="272" y="144" width="480" height="480" transform="translate(0 0)" style="display: none;"></image>
    <g id="logo-center" transform="translate(-1.1368683772161603e-13 0)">
      <image xlink:href="" id="icon_container" x="0" y="0" style="display: none;"></image>
      <g id="slogan" style="font-style:normal;font-weight:400;font-size:32px;line-height:1;font-family:Montserrat;font-variant-ligatures:none;text-align:center;text-anchor:middle" transform="translate(0 0)"></g>
      <g id="title" style="font-style:normal;font-weight:800;font-size:72px;line-height:1;font-family:'Montserrat ExtraBold Alt1';font-variant-ligatures:none;text-align:center;text-anchor:middle" transform="translate(0 0)">
        <path id="path5656" style="font-style:normal;font-weight:800;font-size:72px;line-height:1;font-family:'Montserrat ExtraBold Alt1';font-variant-ligatures:none;text-align:center;text-anchor:middle" d="M 421.24456,-39.096 V 0 h 14.256 v -39.096 h 15.408 V -50.4 h -45.144 v 11.304 z" stroke-width="0" stroke-linejoin="miter" stroke-miterlimit="2" fill="#4d607b" stroke="#4d607b" transform="translate(0 342.7966) translate(252.42198125 -9.544000000000004) scale(2.33) translate(-405.76456 50.4)"></path>
        <path id="path5658" style="font-style:normal;font-weight:800;font-size:72px;line-height:1;font-family:'Montserrat ExtraBold Alt1';font-variant-ligatures:none;text-align:center;text-anchor:middle" d="M 454.72794,-39.024 V 0 h 13.68 v -39.024 z m 0.792,-6.408 c 1.512,1.44 3.528,2.088 6.048,2.088 2.448,0 4.464,-0.648 6.048,-2.088 1.512,-1.44 2.304,-3.24 2.304,-5.4 0,-2.016 -0.792,-3.744 -2.304,-5.04 -1.584,-1.296 -3.6,-2.016 -6.048,-2.016 -2.52,0 -4.536,0.72 -6.048,2.088 -1.584,1.44 -2.304,3.168 -2.304,5.184 0,2.088 0.72,3.816 2.304,5.184 z" stroke-width="0" stroke-linejoin="miter" stroke-miterlimit="2" fill="#4d607b" stroke="#4d607b" transform="translate(0 342.7966) translate(369.9736966499999 -26.991040000000005) scale(2.33) translate(-453.21594 57.888)"></path>
        <path id="path5660" style="font-style:normal;font-weight:800;font-size:72px;line-height:1;font-family:'Montserrat ExtraBold Alt1';font-variant-ligatures:none;text-align:center;text-anchor:middle" d="m 514.30794,-35.352 c -2.952,-2.88 -6.84,-4.32 -11.664,-4.32 -2.52,0 -4.824,0.432 -6.912,1.296 -2.16,0.864 -3.96,2.016 -5.472,3.6 v -4.248 h -13.032 V 0 h 13.68 v -18.864 c 0,-3.024 0.648,-5.328 2.088,-6.912 1.44,-1.512 3.312,-2.304 5.688,-2.304 4.248,0 6.408,2.664 6.408,7.992 V 0 h 13.68 v -22.32 c 0,-5.76 -1.512,-10.152 -4.464,-13.032 z" stroke-width="0" stroke-linejoin="miter" stroke-miterlimit="2" fill="#4d607b" stroke="#4d607b" transform="translate(0 342.7966) translate(432.9116566499999 15.452239999999996) scale(2.33) translate(-477.22794 39.672)"></path>
        <path id="path5662" style="font-style:normal;font-weight:800;font-size:72px;line-height:1;font-family:'Montserrat ExtraBold Alt1';font-variant-ligatures:none;text-align:center;text-anchor:middle" d="M 545.00244,-13.68 555.94644,0 h 16.56 l -17.568,-22.32 16.2,-16.704 h -16.2 l -13.968,13.608 v -28.008 h -13.68 V 0 h 13.68 v -9.576 z" stroke-width="0" stroke-linejoin="miter" stroke-miterlimit="2" fill="#4d607b" stroke="#4d607b" transform="translate(0 342.7966) translate(556.54728165 -16.58992) scale(2.33) translate(-527.29044 53.424)"></path>
        <path id="path5664" style="font-style:normal;font-weight:800;font-size:72px;line-height:1;font-family:'Montserrat ExtraBold Alt1';font-variant-ligatures:none;text-align:center;text-anchor:middle" d="m 583.24231,-1.944 c 3.312,1.728 7.128,2.592 11.304,2.592 4.176,0 7.992,-0.864 11.376,-2.592 3.312,-1.728 5.976,-4.104 7.848,-7.2 1.872,-3.024 2.808,-6.552 2.808,-10.44 0,-3.888 -0.936,-7.344 -2.808,-10.368 -1.872,-3.024 -4.536,-5.4 -7.848,-7.128 -3.384,-1.728 -7.2,-2.592 -11.376,-2.592 -4.248,0 -8.064,0.864 -11.376,2.592 -3.312,1.728 -5.976,4.104 -7.848,7.128 -1.872,3.096 -2.808,6.552 -2.808,10.368 0,3.888 0.936,7.416 2.808,10.44 1.872,3.096 4.536,5.472 7.92,7.2 z m 17.208,-10.728 c -1.584,1.656 -3.528,2.448 -5.904,2.448 -2.448,0 -4.392,-0.792 -5.904,-2.448 -1.584,-1.656 -2.304,-3.96 -2.304,-6.912 0,-2.88 0.72,-5.112 2.304,-6.768 1.512,-1.584 3.456,-2.448 5.904,-2.448 2.376,0 4.32,0.864 5.904,2.448 1.512,1.656 2.304,3.888 2.304,6.768 0,2.952 -0.792,5.256 -2.304,6.912 z" stroke-width="0" stroke-linejoin="miter" stroke-miterlimit="2" fill="#4d607b" stroke="#4d607b" transform="translate(0 342.7966) translate(668.90889875 15.452239999999996) scale(2.33) translate(-572.51431 39.672)"></path>
      </g>
      <image xlink:href="" id="icon" x="0" y="0" style="display: none;"></image>
    </g>
  </g>
</svg>